<?xml version="1.0" encoding="UTF-8"?>
<svg version="1.1" xmlns="http://www.w3.org/2000/svg" width="64" height="64">
<path d="M0 0 C2.85101432 1.40863725 4.66063397 2.92416222 6.890625 5.1796875 C7.57640625 5.85773437 8.2621875 6.53578125 8.96875 7.234375 C10.73748178 9.42462697 11.3355845 10.5350105 11.640625 13.3046875 C10.64868164 14.99267578 10.64868164 14.99267578 8.98828125 16.75 C8.33875488 17.44512695 7.68922852 18.14025391 7.02001953 18.85644531 C6.23481934 19.66436523 5.44961914 20.47228516 4.640625 21.3046875 C3.69756138 22.2898548 2.75470241 23.27521804 1.81201172 24.26074219 C-0.84700463 27.02510868 -3.53653017 29.75765727 -6.23901367 32.47949219 C-7.36718671 33.61928575 -8.49085209 34.76355756 -9.61010742 35.91210938 C-11.24727464 37.5919397 -12.89729338 39.25812522 -14.55078125 40.921875 C-15.04469864 41.43330048 -15.53861603 41.94472595 -16.04750061 42.47164917 C-19.2725917 45.67697946 -21.99205092 47.13206156 -26.359375 48.3046875 C-28.69859808 49.62191991 -30.94876917 51.03194974 -33.2109375 52.4765625 C-35.359375 53.3046875 -35.359375 53.3046875 -37.5234375 52.546875 C-39.37957296 51.29102165 -40.85404826 49.96054692 -42.359375 48.3046875 C-41.04785978 44.69802064 -39.37468895 41.5131066 -37.359375 38.24609375 C-36.23445318 36.25060336 -36.23445318 36.25060336 -35.71484375 33.62792969 C-33.89124445 29.15695821 -31.09659176 26.52237899 -27.671875 23.19140625 C-27.01356689 22.53638626 -26.35525879 21.88136627 -25.67700195 21.20649719 C-24.2896275 19.82951325 -22.89750998 18.45729368 -21.50097656 17.08959961 C-19.35791584 14.99075845 -17.22862676 12.87871189 -15.1015625 10.76367188 C-13.75077356 9.42630156 -12.39923669 8.08968616 -11.046875 6.75390625 C-10.4072583 6.12167648 -9.7676416 5.48944672 -9.10864258 4.83805847 C-8.51462646 4.25687759 -7.92061035 3.67569672 -7.30859375 3.0769043 C-6.78612061 2.56427536 -6.26364746 2.05164642 -5.7253418 1.52348328 C-3.5439994 -0.42283849 -2.88203366 -0.84934105 0 0 Z M-2.359375 3.3046875 C2.13232428 8.83507243 2.13232428 8.83507243 7.640625 13.3046875 C6.04970448 9.16829414 3.03587582 6.07255502 -0.359375 3.3046875 C-1.019375 3.3046875 -1.679375 3.3046875 -2.359375 3.3046875 Z M-5.359375 6.3046875 C-5.689375 7.2946875 -6.019375 8.2846875 -6.359375 9.3046875 C-5.61880859 9.91957031 -5.61880859 9.91957031 -4.86328125 10.546875 C-4.22261719 11.08570313 -3.58195312 11.62453125 -2.921875 12.1796875 C-2.28378906 12.71335937 -1.64570312 13.24703125 -0.98828125 13.796875 C0.640625 15.3046875 0.640625 15.3046875 1.640625 17.3046875 C2.630625 16.9746875 3.620625 16.6446875 4.640625 16.3046875 C0.14892572 10.77430257 0.14892572 10.77430257 -5.359375 6.3046875 Z M-13.91015625 14.26953125 C-15.17960492 15.57885789 -16.43305059 16.90384888 -17.671875 18.2421875 C-18.31705078 18.91443359 -18.96222656 19.58667969 -19.62695312 20.27929688 C-21.21870505 21.94179333 -22.79484405 23.61661594 -24.359375 25.3046875 C-23.0040424 27.84142038 -23.0040424 27.84142038 -21.359375 30.3046875 C-20.699375 30.3046875 -20.039375 30.3046875 -19.359375 30.3046875 C-18.9571875 31.26375 -18.9571875 31.26375 -18.546875 32.2421875 C-17.47269748 34.63600436 -17.47269748 34.63600436 -14.359375 35.3046875 C-11.9809143 33.10029317 -9.63655111 30.86264846 -7.296875 28.6171875 C-6.62076172 27.99134766 -5.94464844 27.36550781 -5.24804688 26.72070312 C-3.45399993 24.9812972 -1.81049506 23.33994243 -0.359375 21.3046875 C-0.22929292 18.42175237 -0.22929292 18.42175237 -1.359375 16.3046875 C-2.349375 15.9746875 -3.339375 15.6446875 -4.359375 15.3046875 C-4.689375 14.3146875 -5.019375 13.3246875 -5.359375 12.3046875 C-9.34843316 10.48177182 -10.94448963 11.45139445 -13.91015625 14.26953125 Z M-27.359375 28.3046875 C-27.77480362 32.19283242 -27.77480362 32.19283242 -25.828125 34.2265625 C-25.1784375 34.82984375 -24.52875 35.433125 -23.859375 36.0546875 C-23.2096875 36.66828125 -22.56 37.281875 -21.890625 37.9140625 C-21.3853125 38.37296875 -20.88 38.831875 -20.359375 39.3046875 C-19.369375 38.9746875 -18.379375 38.6446875 -17.359375 38.3046875 C-20.43819196 34.43417475 -23.36010514 31.27557368 -27.359375 28.3046875 Z M-32.359375 33.3046875 C-27.86767572 38.83507243 -27.86767572 38.83507243 -22.359375 43.3046875 C-23.95029552 39.16829414 -26.96412418 36.07255502 -30.359375 33.3046875 C-31.019375 33.3046875 -31.679375 33.3046875 -32.359375 33.3046875 Z M-33.359375 37.3046875 C-34.22584167 38.73480723 -35.07719329 40.17409369 -35.921875 41.6171875 C-36.39753906 42.41769531 -36.87320313 43.21820313 -37.36328125 44.04296875 C-38.702056 46.39627229 -38.702056 46.39627229 -37.359375 49.3046875 C-32.85134899 48.04663373 -29.8680938 46.40061585 -26.359375 43.3046875 C-28.669375 41.3246875 -30.979375 39.3446875 -33.359375 37.3046875 Z " fill="#20C3E6" transform="translate(47.359375,5.6953125)"/>
<path d="M0 0 C0.91384641 2.46738531 1.03486045 3.84893806 0.4375 6.4375 C-1.50580273 9.90164834 -3.73768386 11.76115559 -7 14 C-9.75 14.4375 -9.75 14.4375 -12 14 C-12.66 13.34 -13.32 12.68 -14 12 C-13.91736025 7.62009308 -13.44053555 5.53327988 -10.625 2.125 C-6.74074888 -1.01939377 -4.69945412 -1.14311046 0 0 Z M-4 2 C-7.26460973 3.80412643 -8.88929795 4.83394693 -11 8 C-11 8.99 -11 9.98 -11 11 C-7.2273236 10.46104623 -5.31787009 9.00464642 -3 6 C-3.13641377 3.78141747 -3.13641377 3.78141747 -4 2 Z " fill="#20C4E7" transform="translate(42,22)"/>
</svg>
